<?xml version="1.0" encoding="utf-8"?>
<!-- Generator: Adobe Illustrator 27.5.0, SVG Export Plug-In . SVG Version: 6.00 Build 0)  -->
<svg version="1.1" id="Calque_1" xmlns="http://www.w3.org/2000/svg" xmlns:xlink="http://www.w3.org/1999/xlink" x="0px" y="0px"
	 viewBox="0 0 1085.1 192.2" style="enable-background:new 0 0 1085.1 192.2;" xml:space="preserve">
<style type="text/css">
	.st0{fill:#020203;}
</style>
<path class="st0" d="M110.5,5.7c-2-4.2-6.2-6.8-10.9-6.8s-8.8,2.6-10.9,6.8L64.5,55.6l-54.2,8c-4.5,0.7-8.3,3.8-9.7,8.2
	s-0.3,9.1,3,12.3l39.3,38.9l-9.3,55c-0.8,4.5,1.1,9.1,4.9,11.8s8.7,3,12.8,0.9l48.4-25.9l48.4,25.9c4.1,2.2,9,1.8,12.8-0.9
	c3.7-2.7,5.6-7.3,4.9-11.8l-9.3-55l39.3-38.9c3.2-3.2,4.4-8,3-12.3c-1.4-4.3-5.2-7.5-9.7-8.2l-54.2-8L110.5,5.7z"/>
<path class="st0" d="M322.3,0c3.4,0,6.6,1.9,8.1,5L356,57.8l57.2,8.4c3.4,0.5,6.2,2.8,7.2,6.1s0.2,6.8-2.2,9.1l-41.5,41.1l9.8,58.1
	c0.6,3.4-0.8,6.8-3.6,8.8s-6.5,2.2-9.4,0.6l-51.1-27.3L271.2,190c-3,1.6-6.7,1.4-9.4-0.6c-2.8-2-4.2-5.4-3.6-8.8l9.8-58.1
	l-41.5-41.1c-2.4-2.4-3.2-5.9-2.2-9.1s3.8-5.6,7.2-6.1l57.2-8.4L314.2,5C315.8,1.9,318.9,0,322.3,0z M322.3,29.5l-19.6,40.4
	c-1.3,2.6-3.8,4.5-6.8,5l-44.1,6.5l32.1,31.8c2.1,2.1,3,5,2.5,7.8l-7.6,44.7l39.3-21c2.6-1.4,5.8-1.4,8.4,0l39.3,21l-7.5-44.6
	c-0.5-2.9,0.4-5.8,2.5-7.8l32.1-31.8l-44.1-6.5c-2.9-0.4-5.4-2.3-6.8-5L322.3,29.5z"/>
<path class="st0" d="M543.7,0c3.4,0,6.6,1.9,8.1,5l25.6,52.7l57.2,8.4c3.4,0.5,6.2,2.8,7.2,6.1s0.2,6.8-2.2,9.1l-41.5,41.1l9.8,58.1
	c0.6,3.4-0.8,6.8-3.6,8.8c-2.8,2-6.5,2.2-9.4,0.6l-51.1-27.3L492.7,190c-3,1.6-6.7,1.4-9.4-0.6c-2.8-2-4.2-5.4-3.6-8.8l9.8-58.1
	l-41.5-41.1c-2.4-2.4-3.2-5.9-2.2-9.1s3.8-5.6,7.2-6.1l57.2-8.4L535.7,5C537.2,1.9,540.3,0,543.7,0z M543.7,29.5l-19.6,40.4
	c-1.3,2.6-3.8,4.5-6.8,5l-44.1,6.5l32.1,31.8c2.1,2.1,3,5,2.5,7.8l-7.6,44.7l39.3-21c2.6-1.4,5.8-1.4,8.4,0l39.3,21l-7.5-44.6
	c-0.5-2.9,0.4-5.8,2.5-7.8l32.1-31.8l-44.1-6.5c-2.9-0.4-5.4-2.3-6.8-5L543.7,29.5z"/>
<path class="st0" d="M765.2,0c3.4,0,6.6,1.9,8.1,5l25.6,52.7l57.2,8.4c3.4,0.5,6.2,2.8,7.2,6.1c1,3.2,0.2,6.8-2.2,9.1l-41.5,41.1
	l9.8,58.1c0.6,3.4-0.8,6.8-3.6,8.8c-2.8,2-6.5,2.2-9.4,0.6l-51.1-27.3L714.1,190c-3,1.6-6.7,1.4-9.4-0.6c-2.8-2-4.2-5.4-3.6-8.8
	l9.8-58.1l-41.5-41.1c-2.4-2.4-3.2-5.9-2.2-9.1c1-3.2,3.8-5.6,7.2-6.1l57.2-8.4L757.1,5C758.7,1.9,761.8,0,765.2,0z M765.2,29.5
	l-19.6,40.4c-1.3,2.6-3.8,4.5-6.8,5l-44.1,6.5l32.1,31.8c2.1,2.1,3,5,2.5,7.8l-7.6,44.7l39.3-21c2.6-1.4,5.8-1.4,8.4,0l39.3,21
	l-7.5-44.6c-0.5-2.9,0.4-5.8,2.5-7.8l32.1-31.8l-44.1-6.5c-2.9-0.4-5.4-2.3-6.8-5L765.2,29.5z"/>
<path class="st0" d="M986.6,0c3.4,0,6.6,1.9,8.1,5l25.6,52.7l57.2,8.4c3.4,0.5,6.2,2.8,7.2,6.1s0.2,6.8-2.2,9.1l-41.5,41.1l9.8,58.1
	c0.6,3.4-0.8,6.8-3.6,8.8s-6.5,2.2-9.4,0.6l-51.1-27.3L935.6,190c-3,1.6-6.7,1.4-9.4-0.6c-2.8-2-4.2-5.4-3.6-8.8l9.8-58.1
	l-41.5-41.1c-2.4-2.4-3.2-5.9-2.2-9.1c1-3.2,3.8-5.6,7.2-6.1l57.2-8.4L978.6,5C980.1,1.9,983.2,0,986.6,0z M986.6,29.5L967,69.8
	c-1.3,2.6-3.8,4.5-6.8,5l-44.1,6.5l32.1,31.8c2.1,2.1,3,5,2.5,7.8l-7.6,44.7l39.3-21c2.6-1.4,5.8-1.4,8.4,0l39.3,21l-7.5-44.6
	c-0.5-2.9,0.4-5.8,2.5-7.8l32.1-31.8l-44.1-6.5c-2.9-0.4-5.4-2.3-6.8-5L986.6,29.5z"/>
<path class="st0" d="M331.5,5.7c-2-4.2-6.2-6.8-10.9-6.8s-8.8,2.6-10.9,6.8l-24.3,49.9l-54.2,8c-4.5,0.7-8.3,3.8-9.7,8.2
	c-1.4,4.3-0.3,9.1,3,12.3l39.3,38.9l-9.3,55c-0.8,4.5,1.1,9.1,4.9,11.8c3.7,2.7,8.7,3,12.8,0.9l48.4-25.9l48.4,25.9
	c4.1,2.2,9,1.8,12.8-0.9c3.7-2.7,5.6-7.3,4.9-11.8l-9.3-55l39.3-38.9c3.2-3.2,4.4-8,3-12.3c-1.4-4.3-5.2-7.5-9.7-8.2l-54.2-8
	L331.5,5.7z"/>
<path class="st0" d="M556.5,5.7c-2-4.2-6.2-6.8-10.9-6.8s-8.8,2.6-10.9,6.8l-24.3,49.9l-54.2,8c-4.5,0.7-8.3,3.8-9.7,8.2
	s-0.3,9.1,3,12.3l39.3,38.9l-9.3,55c-0.8,4.5,1.1,9.1,4.9,11.8c3.7,2.7,8.7,3,12.8,0.9l48.4-25.9l48.4,25.9c4.1,2.2,9,1.8,12.8-0.9
	s5.6-7.3,4.9-11.8l-9.3-55l39.3-38.9c3.2-3.2,4.4-8,3-12.3c-1.4-4.3-5.2-7.5-9.7-8.2l-54.2-8L556.5,5.7z"/>
<path class="st0" d="M776.5,5.7c-2-4.2-6.2-6.8-10.9-6.8s-8.8,2.6-10.9,6.8l-24.3,49.9l-54.2,8c-4.5,0.7-8.3,3.8-9.7,8.2
	s-0.3,9.1,3,12.3l39.3,38.9l-9.3,55c-0.8,4.5,1.1,9.1,4.9,11.8s8.7,3,12.8,0.9l48.4-25.9l48.4,25.9c4.1,2.2,9,1.8,12.8-0.9
	s5.6-7.3,4.9-11.8l-9.3-55l39.3-38.9c3.2-3.2,4.4-8,3-12.3c-1.4-4.3-5.2-7.5-9.7-8.2l-54.2-8L776.5,5.7z"/>
<path class="st0" d="M996.5,5.7c-2-4.2-6.2-6.8-10.9-6.8s-8.8,2.6-10.9,6.8l-24.3,49.9l-54.2,8c-4.5,0.7-8.3,3.8-9.7,8.2
	s-0.3,9.1,3,12.3l39.3,38.9l-9.3,55c-0.8,4.5,1.1,9.1,4.9,11.8s8.7,3,12.8,0.9l48.4-25.9l48.4,25.9c4.1,2.2,9,1.8,12.8-0.9
	s5.6-7.3,4.9-11.8l-9.3-55l39.3-38.9c3.2-3.2,4.4-8,3-12.3c-1.4-4.3-5.2-7.5-9.7-8.2l-54.2-8L996.5,5.7z"/>
</svg>
