<?xml version="1.0" encoding="utf-8"?>
<!-- Generator: Adobe Illustrator 27.5.0, SVG Export Plug-In . SVG Version: 6.00 Build 0)  -->
<svg version="1.1" id="Calque_1" xmlns="http://www.w3.org/2000/svg" xmlns:xlink="http://www.w3.org/1999/xlink" x="0px" y="0px"
	 viewBox="0 0 1000 1000" style="enable-background:new 0 0 1000 1000;" xml:space="preserve">
<style type="text/css">
	.st0{fill:#E94E1B;}
	.st1{fill:#FFFFFF;}
</style>
<path class="st0" d="M831.4,0H168.6C75.5,0,0,75.5,0,168.6v662.7C0,924.5,75.5,1000,168.6,1000h662.7c93.1,0,168.6-75.5,168.6-168.6
	V168.6C1000,75.5,924.5,0,831.4,0z"/>
<g>
	<path class="st1" d="M765.3,114.9c-84.7,0-153.4,68.7-153.4,153.4s68.7,153.4,153.4,153.4S918.6,353,918.6,268.3
		S850,114.9,765.3,114.9z M765.3,388c-66.1,0-119.7-53.6-119.7-119.7s53.6-119.7,119.7-119.7S885,202.2,885,268.3
		S831.4,388,765.3,388z"/>
	<path class="st1" d="M765.3,157.9c-61,0-110.4,49.4-110.4,110.4s49.4,110.4,110.4,110.4c61,0,110.4-49.4,110.4-110.4
		S826.2,157.9,765.3,157.9z M765.3,351.2c-45.8,0-82.9-37.1-82.9-82.9c0-45.8,37.1-82.9,82.9-82.9c45.8,0,82.9,37.1,82.9,82.9
		C848.2,314.1,811.1,351.2,765.3,351.2z"/>
</g>
<g>
	<path class="st1" d="M765.3,608.7c-84.7,0-153.4,68.7-153.4,153.4s68.7,153.4,153.4,153.4s153.4-68.7,153.4-153.4
		S850,608.7,765.3,608.7z M765.3,881.8c-66.1,0-119.7-53.6-119.7-119.7s53.6-119.7,119.7-119.7c66.1,0,119.7,53.6,119.7,119.7
		S831.4,881.8,765.3,881.8z"/>
	<path class="st1" d="M765.3,651.7c-61,0-110.4,49.4-110.4,110.4s49.4,110.4,110.4,110.4c61,0,110.4-49.4,110.4-110.4
		S826.2,651.7,765.3,651.7z M765.3,845c-45.8,0-82.9-37.1-82.9-82.9c0-45.8,37.1-82.9,82.9-82.9c45.8,0,82.9,37.1,82.9,82.9
		C848.2,807.9,811.1,845,765.3,845z"/>
</g>
<path class="st1" d="M335.8,249.1c-141.7,0-256.5,117.1-256.5,261.6c0,112.4,69.6,208.3,167.2,245.3V609c0-12.6,10.2-22.8,22.8-22.8
	l170.1-34.6c31.3-5,35.2,16.7,35.2,57.4v121.7c70.9-46.5,117.8-127.7,117.8-220C592.3,366.3,477.5,249.1,335.8,249.1z M545.4,478.8
	c-0.3,3.5-0.8,7-1.8,10.5c-2.9,9.6-7.7,18.6-13.3,26.9c-0.3,0.5-0.7,0.8-1,1.1c-0.2,0.3-0.5,0.7-0.9,1c-3.2,2.9-5.5,7-8,10.5
	c-3.5,5-7,10-11,14.6c-6.3,7.2-17.1,15.5-25.5,6.2c-1.5-1.7-2-4.1-0.8-6.1c3.6-6.2,9-10.2,14.5-14.6c3.9-3.2,11.6-9.7,10.3-15.7
	c-0.4-1.7-1.5-2.5-2.9-2.7c-0.4,0.7-0.9,1.3-1.7,1.9c-3.9,2.9-8.2,5.3-12.4,8c0,1.6-0.6,3.2-2.2,4.3c-0.4,0.3-0.8,0.6-1.3,0.9
	c-0.4,0.3-0.8,0.5-1.2,0.8c-0.1,1.1-0.5,2.1-1.6,3.1c-0.5,0.5-1,0.9-1.5,1.3c-8,6.8-17.2,12.2-26.9,16.2c-3.4,1.4-7.4-2.8-6.2-6.2
	c2.3-6.2,7.2-11.5,11.5-16.4c0.1-0.1,0.1-0.1,0.2-0.2c-11.7,0.6-22.1,10.1-31.8,16.2c-9.1,5.7-24.6,13.7-34.5,5.6
	c-7.2-5.9-7.6-18.3-8.6-26.9c-0.5-4.5-1.1-9.3-2.8-13.6c-0.5-1.3-1.3-2.5-2-3.3c0,0.1,0,0.1,0,0.2c0-0.4,0.2,0.1-0.1,0.6
	c-0.6,1-1,2.3-1.3,3.6c0.3,0.7,0.5,1.4,0.5,2.1v6.7c0,0.1,0,0.2,0,0.4c0.9,1.1,1.4,2.5,1,4.3c-0.5,2-0.8,4.1-1.1,6.1
	c0.1,0.3,0.1,0.6,0.1,0.9c0.4,10.3-4.6,26-14.8,30.5c-7.8,3.5-19.8,2.8-27.9,0.6c-3.7-1-6.7-3.2-9.2-6
	c-15.2-11.7-17.1-33.8-17.2-51.9c-0.4-0.6-1.1-1.3-2-2c-1.2,0-1.4-0.1-1-0.2c-0.2,0-0.5,0-0.7,0c-0.6,0.2-1.5,0.3-2.2,0.4
	c0.2,0.5,0.3,1.1,0.3,1.7c0,3.6-0.1,7.2-0.9,10.7c0.2,0.5,0.3,1,0.3,1.6c0.1,10.7,1.8,21.3,0.8,32c-0.8,8.6-3.1,18.8-11.7,22.8
	c-11.6,5.5-23.1-2.9-28.6-12.9c-2.9-5.3-4.5-11.1-6.7-16.7c-1.7-4.4-4.2-9.8-8.8-11.8c-6.2-2.7-14.5-2.1-21-2.2
	c-9.7-0.1-19.3,0.4-29,0.5c-0.4,0-0.7,0-1-0.1c-0.6,0.1-1.1,0.3-1.7,0.4c-5.3,1.4-10.8,2.3-16.1,3.9c-7.5,2.2-18.5,4.8-21.3,13.3
	c-1,3-2.3,9-0.9,12.1c0.7,1.4,0.5,0.9,2.4,0c2.1-1,4-2.4,5.8-3.8c8.4-6.5,15.8-12.6,26.1-16.1c3.7-1.3,7.5-2.4,11.3-3.3
	c0.6-0.2,1.2-0.3,1.9-0.4c3.1-0.7,6.2-1.3,9.3-1.7c11-1.7,34.6-3.4,31.1,14.4c-0.3,1.3-1,2.3-1.9,2.8c0.6,11.1-7.5,19.8-16.5,27.4
	c-12.2,10.3-23.9,21.7-38.6,28.6c-25.1,11.8-55.4,8.8-74.1-13c-16.7-19.5-15.1-50.4-10.6-74.1c4.5-23.8,17.7-46.6,33.9-64.4
	c14.3-15.8,33.4-29.4,55-31.6c0.5-0.5,1.2-1,2-1.3c11.4-4,22.9-6.9,34.6-9.7c5.9-1.4,17.9-4.8,20.4,3.6c2.3,7.7-8,11.6-12.8,15
	c-3.2,2.3-8,5.7-9.5,9.5c-0.3,0.8-0.8,2.5-0.5,3.4c1,0.1,2.4-0.4,3.3-0.6c9.8-2.6,18.7-8.7,27-14.3c9.7-6.4,19.4-12.8,28.9-19.4
	c9.4-6.5,19.1-12.6,27.7-20.1c7.4-6.5,14.6-13.4,23.1-18.4c11-6.5,25.3-9.6,37.9-6.9c11.3,2.4,20,15.3,11.3,25.5
	c-3.5,4.1-8.6,6.5-13.3,8.7c-4.4,2-10,3.8-13.5,7.3c-1.3,1.3-1.2,3,0.1,4.1c0.6,0.2,1.2,0.3,1.8,0.5c0.1,0,0.2,0,0.3,0
	c1.7,0.1,3.4,0.1,5.2,0.1c0.9,0,1.9-0.1,2.8-0.1c2.6-0.7,5.2-1.8,7.3-2.7c11.7-4.8,22-12.1,33.1-18c9-4.8,18.6-7.1,28.4-8.8
	c0.5-0.4,1.1-0.7,1.8-1c3.8-1.2,7.6-2.1,11.4-2.9c15.4-3.7,32.1-6.4,46.8-1.6c14.6,4.8,23.8,18.5,30,31.9c0,0,0,0,0,0
	c0.6,0.4,1.2,0.9,1.7,1.7c5,8,9.5,16.6,11,26c0.3,1.9,0.3,3.9,0.2,5.9c0.6,0.8,1.1,1.8,1.2,3c0.3,3.2,0.4,6.4,0.3,9.6
	c0.2,2.3,0.3,4.6,0.4,6.8c0.1,0.2,0.2,0.4,0.3,0.7c2.4,7.1,1.3,14.5,0,21.6C545.7,478,545.6,478.4,545.4,478.8z"/>
<path class="st1" d="M601.9,451.1l80.5-31.4c-46.4-25.5-78.9-73.2-83.3-129l-43.2,56.6C574.2,374.4,601.9,451.1,601.9,451.1z"/>
<path class="st1" d="M604.5,576.5l79.4,33.9c-47.2,23.9-81.2,70.7-87.4,126.3l-41.3-57.9C574.3,652.2,604.5,576.5,604.5,576.5z"/>
</svg>
